<?xml version="1.0" encoding="UTF-8"?>
<svg xmlns="http://www.w3.org/2000/svg" viewBox="0 0 200 200" width="768" height="768">
  <defs>
    <radialGradient id="bg" cx="50%" cy="35%" r="70%">
      <stop offset="0%" stop-color="#4a4630"/>
      <stop offset="100%" stop-color="#1e1c14"/>
    </radialGradient>
    <radialGradient id="skin" cx="50%" cy="40%" r="55%">
      <stop offset="0%" stop-color="#e0c4a8"/>
      <stop offset="100%" stop-color="#e0c4a8" stop-opacity="0.85"/>
    </radialGradient>
  </defs>
  <rect width="200" height="200" fill="url(#bg)"/>
  <ellipse cx="100" cy="210" rx="70" ry="40" fill="#c8b050" opacity="0.15"/>
  <!-- neck -->
  <path d="M78 145 L85 175 L115 175 L122 145 Z" fill="#e0c4a8" opacity="0.9"/>
  <!-- shoulders -->
  <path d="M20 200 C40 155, 70 150, 100 152 C130 150, 160 155, 180 200 Z" fill="#c8b050" opacity="0.35"/>
  <path d="M30 200 C48 162, 75 156, 100 158 C125 156, 152 162, 170 200 Z" fill="#4a4630" opacity="0.9"/>
  <!-- head -->
  <ellipse cx="100" cy="100" rx="48" ry="56" fill="url(#skin)"/>
  <!-- hair -->
  <path d="M28 85 C25 40, 55 15, 100 18 C148 14, 175 42, 172 88 C155 45, 130 36, 100 38 C70 36, 42 48, 28 85 Z" fill="#c8a040"/>
  <!-- eyes -->
  <ellipse cx="78" cy="98" rx="6" ry="7" fill="#fff" opacity="0.9"/>
  <ellipse cx="122" cy="98" rx="6" ry="7" fill="#fff" opacity="0.9"/>
  <ellipse cx="79" cy="99" rx="3.2" ry="3.8" fill="#5a4830"/>
  <ellipse cx="123" cy="99" rx="3.2" ry="3.8" fill="#5a4830"/>
  <circle cx="80" cy="97.5" r="1.1" fill="#fff"/>
  <circle cx="124" cy="97.5" r="1.1" fill="#fff"/>
  <!-- brows -->
  <path d="M68 88 Q78 84 88 88" stroke="#c8a040" stroke-width="2.2" fill="none" stroke-linecap="round"/>
  <path d="M112 88 Q122 84 132 88" stroke="#c8a040" stroke-width="2.2" fill="none" stroke-linecap="round"/>
  <!-- nose -->
  <path d="M100 102 L96 118 Q100 121 104 118 Z" fill="#e0c4a8" stroke="#c07060" stroke-width="0.6" opacity="0.7"/>
  <!-- mouth -->
  <path d="M86 130 Q100 138 114 130" stroke="#c07060" stroke-width="2.4" fill="none" stroke-linecap="round"/>
  <circle cx="148" cy="100" r="4" fill="#c8b050" opacity="0.8"/>
  <circle cx="100" cy="100" r="98" fill="none" stroke="#c8b050" stroke-width="2" opacity="0.25"/>
</svg>